<svg width="27" height="22" viewBox="0 0 27 22" fill="none" xmlns="http://www.w3.org/2000/svg">
<path d="M22.388 2.30176C20.6509 1.46036 18.8164 0.863926 16.9319 0.527832C16.6746 1.01139 16.4432 1.50983 16.2389 2.0208C14.2344 1.70968 12.1976 1.70968 10.1932 2.0208C10.0062 1.55643 9.72676 0.964346 9.50016 0.527832C7.61776 0.860996 5.78586 1.45756 4.05287 2.30176C0.596609 7.68156 -0.34721 12.9337 0.130198 18.1138C2.15368 19.6819 4.41433 20.8768 6.81611 21.6477C7.35535 20.8791 7.83294 20.0644 8.24393 19.212C7.46128 18.9044 6.70654 18.5229 5.9889 18.072C6.1759 17.9304 6.36291 17.7771 6.53452 17.6216C8.62378 18.6583 10.904 19.1958 13.2127 19.1958C15.5214 19.1958 17.8017 18.6583 19.8909 17.6216C20.0779 17.7771 20.2517 17.9304 20.4387 18.072C19.7209 18.5224 18.9662 18.904 18.1837 19.212C18.5939 20.0649 19.0715 20.8796 19.6115 21.6477C22.014 20.8785 24.2749 19.6835 26.2974 18.1138C26.8584 12.1164 25.3778 6.90605 22.388 2.30176ZM8.83134 14.9189C7.52452 14.9189 6.45751 13.6651 6.45751 12.1326C6.45751 10.6002 7.49812 9.34635 8.83134 9.34635C10.1646 9.34635 11.2338 10.6002 11.2074 12.1326C11.181 13.6651 10.1536 14.9189 8.83134 14.9189ZM17.5985 14.9189C16.2917 14.9189 15.2225 13.6651 15.2225 12.1326C15.2225 10.6002 16.2653 9.34635 17.5985 9.34635C18.9317 9.34635 20.0009 10.6002 19.9745 12.1326C19.9481 13.6651 18.9339 14.9189 17.5985 14.9189Z" fill="#F5F5F5"/>
</svg>
