<svg width="28" height="23" viewBox="0 0 28 23" fill="none" xmlns="http://www.w3.org/2000/svg">
<path d="M12.6041 18.4868C13.0544 18.4868 13.4217 18.8913 13.4217 19.3874C13.4217 19.8834 13.0544 20.288 12.6041 20.288C12.1537 20.288 11.7865 19.8834 11.7865 19.3874C11.7865 18.8865 12.1537 18.4868 12.6041 18.4868ZM25.4582 12.9099C25.0079 12.9099 24.6406 12.5053 24.6406 12.0093C24.6406 11.5132 25.0079 11.1087 25.4582 11.1087C25.9086 11.1087 26.2758 11.5132 26.2758 12.0093C26.2758 12.5053 25.9086 12.9099 25.4582 12.9099ZM25.4582 9.22563C24.0591 9.22563 22.9224 10.4778 22.9224 12.0141C22.9224 12.3127 22.9661 12.6113 23.0579 12.9002L14.6852 17.7981C14.2087 17.0468 13.4392 16.5989 12.6041 16.5989C11.6378 16.5989 10.759 17.2057 10.3306 18.1593L2.81044 13.796C2.0147 13.3385 1.42009 11.8985 1.48567 10.5886C1.51628 9.90469 1.73488 9.37493 2.05842 9.16784C2.26391 9.03781 2.5175 9.04744 2.77983 9.20155L2.82792 9.23045C4.82163 10.3863 11.3449 14.162 11.6203 14.3017C12.0444 14.5184 12.2805 14.6051 13.0019 14.2295L26.4857 6.51904C26.6824 6.43717 26.9142 6.23008 26.9142 5.91223C26.9142 5.47397 26.5032 5.30059 26.4988 5.30059C25.7337 4.89605 24.5532 4.28923 23.4033 3.69687C20.9462 2.43026 18.1611 0.99509 16.9369 0.291954C15.8788 -0.314862 15.0306 0.195634 14.8776 0.301586L14.5847 0.460514C9.08449 3.45607 1.71302 7.46779 1.29767 7.75194C0.545655 8.2528 0.082206 9.25453 0.0209957 10.4971C-0.0708197 12.4668 0.842962 14.5232 2.14587 15.2745L10.0988 19.7871C10.2781 21.15 11.3449 22.1759 12.6041 22.1759C13.9901 22.1759 15.1181 20.9478 15.1399 19.4307L23.9017 14.2102C24.3477 14.5907 24.8986 14.8026 25.4626 14.8026C26.8617 14.8026 27.9985 13.5504 27.9985 12.0141C27.9941 10.473 26.8573 9.22563 25.4582 9.22563Z" fill="#F5F5F5"/>
</svg>
