<svg width="26" height="16" viewBox="0 0 26 16" fill="none" xmlns="http://www.w3.org/2000/svg">
<path d="M18.2615 15.1636C20.2669 15.1636 21.8925 11.9799 21.8925 8.05273C21.8925 4.12552 20.2669 0.941895 18.2615 0.941895C16.2562 0.941895 14.6306 4.12552 14.6306 8.05273C14.6306 11.9799 16.2562 15.1636 18.2615 15.1636Z" fill="#F5F5F5"/>
<path d="M7.04851 15.5069C10.9332 15.5069 14.0824 12.1686 14.0824 8.05057C14.0824 3.93255 10.9332 0.594238 7.04851 0.594238C3.16382 0.594238 0.0146484 3.93255 0.0146484 8.05057C0.0146484 12.1686 3.16382 15.5069 7.04851 15.5069Z" fill="#F5F5F5"/>
<path d="M23.6314 14.3662C24.3959 14.3662 25.0156 11.5425 25.0156 8.0593C25.0156 4.57612 24.3959 1.75244 23.6314 1.75244C22.8669 1.75244 22.2472 4.57612 22.2472 8.0593C22.2472 11.5425 22.8669 14.3662 23.6314 14.3662Z" fill="#F5F5F5"/>
</svg>
