<svg width="25" height="22" viewBox="0 0 25 22" fill="none" xmlns="http://www.w3.org/2000/svg">
<path d="M24.2878 3.01932C23.3767 3.44952 22.4108 3.73201 21.4219 3.8575C22.462 3.18991 23.2402 2.1409 23.6118 0.905459C22.6347 1.52931 21.5646 1.96887 20.4483 2.20496C19.7638 1.42722 18.8769 0.887329 17.9023 0.655233C16.9278 0.423136 15.9105 0.50953 14.9824 0.903212C14.0542 1.29689 13.2579 1.97972 12.6967 2.86326C12.1354 3.74681 11.8349 4.79036 11.8343 5.85873C11.8344 6.26684 11.8772 6.67364 11.9618 7.07159C9.98059 6.9648 8.04252 6.41352 6.2733 5.45348C4.50409 4.49344 2.94325 3.14611 1.69205 1.4989C1.05557 2.67308 0.860772 4.06254 1.14725 5.3849C1.43372 6.70725 2.17997 7.86326 3.23433 8.618C2.44306 8.59192 1.66917 8.36316 0.977583 7.95092V8.02023C0.977281 9.25159 1.37524 10.4451 2.1039 11.3981C2.83255 12.3512 3.84698 13.005 4.97496 13.2486C4.5467 13.3724 4.10501 13.435 3.66139 13.4348C3.3469 13.4351 3.0331 13.4032 2.72429 13.3395C3.04221 14.3992 3.66201 15.3258 4.49682 15.9896C5.33162 16.6534 6.33959 17.021 7.37946 17.0409C5.28946 18.7927 2.63604 19.587 0 19.2501C2.27777 20.8186 4.92988 21.6511 7.63853 21.6477C16.8052 21.6477 21.8166 13.5215 21.8166 6.48682C21.8166 6.25725 21.8166 6.02549 21.8024 5.79808C22.7763 5.04282 23.6171 4.10857 24.2858 3.0388L24.2878 3.01932Z" fill="#F5F5F5"/>
</svg>
