<svg width="140" height="20" viewBox="0 0 140 20" fill="none" xmlns="http://www.w3.org/2000/svg">
<path d="M13.8856 0.278164V13.5744C13.8856 15.6328 13.273 17.2184 12.0478 18.331C10.842 19.4437 9.20843 20 7.14699 20C4.9883 20 3.25747 19.4159 1.95448 18.2476C0.651494 17.0793 0 15.4196 0 13.2684H4.95913C4.95913 14.0844 5.13416 14.7056 5.48422 15.1321C5.83427 15.5401 6.33991 15.7441 7.00113 15.7441C7.604 15.7441 8.07075 15.5586 8.40135 15.1878C8.73196 14.8169 8.89727 14.2791 8.89727 13.5744V0.278164H13.8856Z" fill="url(#paint0_linear_309_158)"/>
<path d="M21.9405 0.278164V11.9611C21.9405 13.1293 22.2419 14.0287 22.8448 14.6592C23.4477 15.2898 24.3326 15.605 25.4994 15.605C26.6663 15.605 27.5609 15.2898 28.1832 14.6592C28.8055 14.0287 29.1167 13.1293 29.1167 11.9611V0.278164H34.105V11.9332C34.105 13.6764 33.716 15.1507 32.9381 16.3561C32.1602 17.5614 31.11 18.4701 29.7876 19.0821C28.4846 19.694 27.0261 20 25.4119 20C23.7978 20 22.3489 19.7033 21.0654 19.1099C19.8013 18.4979 18.7997 17.5892 18.0607 16.3839C17.3217 15.1599 16.9522 13.6764 16.9522 11.9332V0.278164H21.9405Z" fill="url(#paint1_linear_309_158)"/>
<path d="M47.176 19.8053L42.917 12.4339H41.721V19.8053H36.7327V0.278164H45.1049C46.719 0.278164 48.0901 0.547055 49.218 1.08484C50.3654 1.62262 51.2211 2.36439 51.7851 3.31015C52.3491 4.23737 52.6311 5.27585 52.6311 6.42559C52.6311 7.72369 52.2421 8.88271 51.4642 9.90264C50.7058 10.9226 49.5778 11.6458 48.0803 12.0723L52.8061 19.8053H47.176ZM41.721 9.06815H44.8131C45.7272 9.06815 46.4078 8.85489 46.8551 8.42837C47.3219 8.00185 47.5553 7.39917 47.5553 6.62031C47.5553 5.87854 47.3219 5.29439 46.8551 4.86787C46.4078 4.44135 45.7272 4.2281 44.8131 4.2281H41.721V9.06815Z" fill="url(#paint2_linear_309_158)"/>
<path d="M72.4485 0.278164L65.3598 13.3519V19.8053H60.3715V13.3519L53.2829 0.278164H58.9421L62.9094 8.45619L66.8476 0.278164H72.4485Z" fill="url(#paint3_linear_309_158)"/>
<path d="M86.5619 0.278164C88.7206 0.278164 90.607 0.686138 92.2212 1.50209C93.8353 2.31803 95.08 3.46778 95.9551 4.95132C96.8497 6.41632 97.297 8.11312 97.297 10.0417C97.297 11.9518 96.8497 13.6486 95.9551 15.1321C95.08 16.6157 93.8256 17.7654 92.192 18.5814C90.5779 19.3973 88.7012 19.8053 86.5619 19.8053H78.8899V0.278164H86.5619ZM86.241 15.6885C88.1275 15.6885 89.5957 15.197 90.6459 14.2142C91.6961 13.2313 92.2212 11.8405 92.2212 10.0417C92.2212 8.24293 91.6961 6.84284 90.6459 5.84145C89.5957 4.84005 88.1275 4.33936 86.241 4.33936H83.8782V15.6885H86.241Z" fill="url(#paint4_linear_309_158)"/>
<path d="M111.957 16.3561H104.315L103.089 19.8053H97.8677L105.277 0.278164H111.053L118.463 19.8053H113.183L111.957 16.3561ZM110.674 12.6843L108.136 5.53547L105.627 12.6843H110.674Z" fill="url(#paint5_linear_309_158)"/>
<path d="M129.527 20C127.602 20 125.832 19.5735 124.218 18.7204C122.624 17.8674 121.35 16.6806 120.397 15.1599C119.463 13.6208 118.997 11.8962 118.997 9.98609C118.997 8.07603 119.463 6.36069 120.397 4.84005C121.35 3.31942 122.624 2.13259 124.218 1.27956C125.832 0.426519 127.602 0 129.527 0C131.453 0 133.213 0.426519 134.808 1.27956C136.422 2.13259 137.686 3.31942 138.6 4.84005C139.533 6.36069 140 8.07603 140 9.98609C140 11.8962 139.533 13.6208 138.6 15.1599C137.666 16.6806 136.402 17.8674 134.808 18.7204C133.213 19.5735 131.453 20 129.527 20ZM129.527 15.6606C131.161 15.6606 132.464 15.1414 133.436 14.1029C134.428 13.0644 134.924 11.6922 134.924 9.98609C134.924 8.26147 134.428 6.8892 133.436 5.86926C132.464 4.83078 131.161 4.31154 129.527 4.31154C127.874 4.31154 126.552 4.82151 125.56 5.84145C124.588 6.86138 124.102 8.24293 124.102 9.98609C124.102 11.7107 124.588 13.0923 125.56 14.1307C126.552 15.1507 127.874 15.6606 129.527 15.6606Z" fill="url(#paint6_linear_309_158)"/>
<defs>
<linearGradient id="paint0_linear_309_158" x1="18.2" y1="5.2" x2="81.1264" y2="66.6787" gradientUnits="userSpaceOnUse">
<stop offset="0.078125" stop-color="#4D94E7"/>
<stop offset="0.424568" stop-color="#006AE6"/>
<stop offset="0.911458" stop-color="#1DC1A4"/>
</linearGradient>
<linearGradient id="paint1_linear_309_158" x1="18.2" y1="5.2" x2="81.1264" y2="66.6787" gradientUnits="userSpaceOnUse">
<stop offset="0.078125" stop-color="#4D94E7"/>
<stop offset="0.424568" stop-color="#006AE6"/>
<stop offset="0.911458" stop-color="#1DC1A4"/>
</linearGradient>
<linearGradient id="paint2_linear_309_158" x1="18.2" y1="5.2" x2="81.1264" y2="66.6787" gradientUnits="userSpaceOnUse">
<stop offset="0.078125" stop-color="#4D94E7"/>
<stop offset="0.424568" stop-color="#006AE6"/>
<stop offset="0.911458" stop-color="#1DC1A4"/>
</linearGradient>
<linearGradient id="paint3_linear_309_158" x1="18.2" y1="5.2" x2="81.1264" y2="66.6787" gradientUnits="userSpaceOnUse">
<stop offset="0.078125" stop-color="#4D94E7"/>
<stop offset="0.424568" stop-color="#006AE6"/>
<stop offset="0.911458" stop-color="#1DC1A4"/>
</linearGradient>
<linearGradient id="paint4_linear_309_158" x1="18.2" y1="5.2" x2="81.1264" y2="66.6787" gradientUnits="userSpaceOnUse">
<stop offset="0.078125" stop-color="#4D94E7"/>
<stop offset="0.424568" stop-color="#006AE6"/>
<stop offset="0.911458" stop-color="#1DC1A4"/>
</linearGradient>
<linearGradient id="paint5_linear_309_158" x1="18.2" y1="5.2" x2="81.1264" y2="66.6787" gradientUnits="userSpaceOnUse">
<stop offset="0.078125" stop-color="#4D94E7"/>
<stop offset="0.424568" stop-color="#006AE6"/>
<stop offset="0.911458" stop-color="#1DC1A4"/>
</linearGradient>
<linearGradient id="paint6_linear_309_158" x1="18.2" y1="5.2" x2="81.1264" y2="66.6787" gradientUnits="userSpaceOnUse">
<stop offset="0.078125" stop-color="#4D94E7"/>
<stop offset="0.424568" stop-color="#006AE6"/>
<stop offset="0.911458" stop-color="#1DC1A4"/>
</linearGradient>
</defs>
</svg>
