<svg width="742" height="106" viewBox="0 0 742 106" fill="none" xmlns="http://www.w3.org/2000/svg">
<path d="M73.5935 1.47427V71.9444C73.5935 82.854 70.3468 91.2573 63.8532 97.1544C57.4627 103.051 48.8047 106 37.879 106C26.438 106 17.2646 102.904 10.3588 96.7121C3.45292 90.5202 0 81.7237 0 70.3227H26.2834C26.2834 74.6472 27.2111 77.9397 29.0664 80.2003C30.9216 82.3625 33.6015 83.4437 37.106 83.4437C40.3012 83.4437 42.7749 82.4608 44.5272 80.4951C46.2794 78.5294 47.1555 75.6792 47.1555 71.9444V1.47427H73.5935Z" fill="url(#paint0_linear_368_83)"/>
<path d="M116.285 1.47427V63.3936C116.285 69.5855 117.882 74.3523 121.078 77.694C124.273 81.0357 128.963 82.7065 135.147 82.7065C141.331 82.7065 146.073 81.0357 149.371 77.694C152.669 74.3523 154.318 69.5855 154.318 63.3936V1.47427H180.756V63.2462C180.756 72.4849 178.695 80.2986 174.572 86.6871C170.449 93.0756 164.883 97.8915 157.874 101.135C150.968 104.378 143.238 106 134.683 106C126.128 106 118.449 104.427 111.646 101.282C104.947 98.0389 99.6386 93.223 95.7218 86.8345C91.8051 80.3477 89.8467 72.4849 89.8467 63.2462V1.47427H116.285Z" fill="url(#paint1_linear_368_83)"/>
<path d="M250.033 104.968L227.46 65.8999H221.121V104.968H194.683V1.47427H239.056C247.611 1.47427 254.877 2.89939 260.855 5.74965C266.937 8.5999 271.472 12.5313 274.461 17.5438C277.45 22.458 278.945 27.962 278.945 34.0556C278.945 40.9356 276.883 47.0784 272.76 52.484C268.741 57.8897 262.762 61.7228 254.826 63.9833L279.872 104.968H250.033ZM221.121 48.0612H237.51C242.354 48.0612 245.962 46.9309 248.332 44.6704C250.806 42.4098 252.043 39.2156 252.043 35.0876C252.043 31.1562 250.806 28.0603 248.332 25.7997C245.962 23.5392 242.354 22.4089 237.51 22.4089H221.121V48.0612Z" fill="url(#paint2_linear_368_83)"/>
<path d="M383.977 1.47427L346.407 70.765V104.968H319.969V70.765L282.399 1.47427H312.393L333.42 44.8178L354.292 1.47427H383.977Z" fill="url(#paint3_linear_368_83)"/>
<path d="M458.778 1.47427C470.219 1.47427 480.217 3.63653 488.772 7.96105C497.327 12.2856 503.924 18.3792 508.562 26.242C513.303 34.0065 515.674 42.9995 515.674 53.2211C515.674 63.3445 513.303 72.3375 508.562 80.2003C503.924 88.063 497.276 94.1567 488.618 98.4812C480.063 102.806 470.116 104.968 458.778 104.968H418.116V1.47427H458.778ZM457.078 83.1488C467.076 83.1488 474.857 80.5443 480.423 75.3352C485.989 70.1261 488.772 62.7548 488.772 53.2211C488.772 43.6875 485.989 36.267 480.423 30.9597C474.857 25.6523 467.076 22.9986 457.078 22.9986H444.554V83.1488H457.078Z" fill="url(#paint4_linear_368_83)"/>
<path d="M593.374 86.6871H552.867L546.373 104.968H518.699L557.969 1.47427H588.582L627.852 104.968H599.868L593.374 86.6871ZM586.572 67.2267L573.121 29.338L559.824 67.2267H586.572Z" fill="url(#paint5_linear_368_83)"/>
<path d="M686.496 106C676.291 106 666.912 103.739 658.357 99.2184C649.905 94.6973 643.154 88.407 638.103 80.3477C633.156 72.1901 630.682 63.0496 630.682 52.9263C630.682 42.803 633.156 33.7116 638.103 25.6523C643.154 17.593 649.905 11.3027 658.357 6.78165C666.912 2.26055 676.291 0 686.496 0C696.7 0 706.028 2.26055 714.48 6.78165C723.035 11.3027 729.734 17.593 734.579 25.6523C739.526 33.7116 742 42.803 742 52.9263C742 63.0496 739.526 72.1901 734.579 80.3477C729.631 88.407 722.932 94.6973 714.48 99.2184C706.028 103.739 696.7 106 686.496 106ZM686.496 83.0014C695.154 83.0014 702.06 80.2494 707.213 74.7455C712.47 69.2415 715.098 61.9685 715.098 52.9263C715.098 43.7858 712.47 36.5128 707.213 31.1071C702.06 25.6032 695.154 22.8512 686.496 22.8512C677.735 22.8512 670.726 25.554 665.469 30.9597C660.315 36.3653 657.739 43.6875 657.739 52.9263C657.739 62.0668 660.315 69.389 665.469 74.8929C670.726 80.2986 677.735 83.0014 686.496 83.0014Z" fill="url(#paint6_linear_368_83)"/>
<defs>
<linearGradient id="paint0_linear_368_83" x1="96.46" y1="27.56" x2="429.97" y2="353.397" gradientUnits="userSpaceOnUse">
<stop offset="0.078125" stop-color="#4D94E7"/>
<stop offset="0.424568" stop-color="#006AE6"/>
<stop offset="0.911458" stop-color="#1DC1A4"/>
</linearGradient>
<linearGradient id="paint1_linear_368_83" x1="96.46" y1="27.56" x2="429.97" y2="353.397" gradientUnits="userSpaceOnUse">
<stop offset="0.078125" stop-color="#4D94E7"/>
<stop offset="0.424568" stop-color="#006AE6"/>
<stop offset="0.911458" stop-color="#1DC1A4"/>
</linearGradient>
<linearGradient id="paint2_linear_368_83" x1="96.46" y1="27.56" x2="429.97" y2="353.397" gradientUnits="userSpaceOnUse">
<stop offset="0.078125" stop-color="#4D94E7"/>
<stop offset="0.424568" stop-color="#006AE6"/>
<stop offset="0.911458" stop-color="#1DC1A4"/>
</linearGradient>
<linearGradient id="paint3_linear_368_83" x1="96.46" y1="27.56" x2="429.97" y2="353.397" gradientUnits="userSpaceOnUse">
<stop offset="0.078125" stop-color="#4D94E7"/>
<stop offset="0.424568" stop-color="#006AE6"/>
<stop offset="0.911458" stop-color="#1DC1A4"/>
</linearGradient>
<linearGradient id="paint4_linear_368_83" x1="96.46" y1="27.56" x2="429.97" y2="353.397" gradientUnits="userSpaceOnUse">
<stop offset="0.078125" stop-color="#4D94E7"/>
<stop offset="0.424568" stop-color="#006AE6"/>
<stop offset="0.911458" stop-color="#1DC1A4"/>
</linearGradient>
<linearGradient id="paint5_linear_368_83" x1="96.46" y1="27.56" x2="429.97" y2="353.397" gradientUnits="userSpaceOnUse">
<stop offset="0.078125" stop-color="#4D94E7"/>
<stop offset="0.424568" stop-color="#006AE6"/>
<stop offset="0.911458" stop-color="#1DC1A4"/>
</linearGradient>
<linearGradient id="paint6_linear_368_83" x1="96.46" y1="27.56" x2="429.97" y2="353.397" gradientUnits="userSpaceOnUse">
<stop offset="0.078125" stop-color="#4D94E7"/>
<stop offset="0.424568" stop-color="#006AE6"/>
<stop offset="0.911458" stop-color="#1DC1A4"/>
</linearGradient>
</defs>
</svg>
