<svg width="12" height="12" viewBox="0 0 12 12" fill="none" xmlns="http://www.w3.org/2000/svg">
<path fill-rule="evenodd" clip-rule="evenodd" d="M7.14356 9.04821C6.43962 9.47154 5.61959 9.71428 4.74419 9.71428C2.12404 9.71428 0 7.53967 0 4.85714C0 2.17462 2.12404 0 4.74419 0C7.36433 0 9.48837 2.17462 9.48837 4.85714C9.48837 5.60263 9.32433 6.3089 9.03118 6.94016L11.5913 9.56125C12.1362 10.1191 12.1362 11.0237 11.5913 11.5816C11.0464 12.1394 10.1629 12.1394 9.61799 11.5816L7.14356 9.04821ZM8.37209 4.85714C8.37209 6.90848 6.74782 8.57143 4.74419 8.57143C2.74055 8.57143 1.11628 6.90848 1.11628 4.85714C1.11628 2.8058 2.74055 1.14286 4.74419 1.14286C6.74782 1.14286 8.37209 2.8058 8.37209 4.85714Z" fill="#F5F5F5"/>
</svg>
