<svg width="32" height="32" viewBox="0 0 32 32" fill="none" xmlns="http://www.w3.org/2000/svg">
<path d="M15.9952 32L15.9973 26.5549C15.4454 26.5549 14.8891 26.5111 14.3446 26.4247L13.4948 31.8035C14.319 31.9338 15.1603 32 15.9963 32H15.9952ZM18.4956 31.8057C19.3219 31.6754 20.1429 31.48 20.9373 31.2227L19.2611 26.0424C18.7379 26.2122 18.1956 26.3414 17.65 26.4268L18.4956 31.8057ZM11.052 31.2195L12.7325 26.0403C12.2083 25.8705 11.6948 25.657 11.2047 25.4071L8.72997 30.2576C9.4741 30.6377 10.2556 30.9611 11.052 31.2195ZM23.2583 30.264C24.0035 29.885 24.7241 29.4429 25.4009 28.9507L22.197 24.5477C21.7518 24.8722 21.2778 25.1626 20.7878 25.4115L23.2583 30.264ZM6.58833 28.9422L9.79547 24.5413C9.35238 24.2188 8.92961 23.8558 8.53675 23.4641L4.68368 27.3118L4.68688 27.315C5.27835 27.9066 5.91785 28.4542 6.58833 28.9422ZM27.28 27.3482L27.3131 27.314C27.9024 26.7247 28.4491 26.0862 28.938 25.4167L24.5383 22.2084C24.216 22.6505 23.854 23.0732 23.4632 23.4651L23.4088 23.5206L25.26 25.2683L27.28 27.3482ZM3.05448 25.4061L7.45631 22.201C7.13175 21.7558 6.84135 21.2817 6.59152 20.7916L1.74023 23.2633C2.11924 24.0074 2.56124 24.7281 3.05448 25.4051V25.4061ZM30.2544 23.274C30.6345 22.5298 30.958 21.7482 31.2174 20.9518L26.0384 19.2702C25.8686 19.7944 25.6551 20.308 25.4052 20.798L30.2544 23.274ZM0.780433 20.94L5.96057 19.2628C5.79081 18.7396 5.66163 18.1972 5.57515 17.6516L0.196443 18.4994C0.326691 19.3258 0.523137 20.1468 0.780433 20.9412V20.94ZM31.8025 18.5111C31.9327 17.6869 31.9989 16.8456 32 16.0106L26.5551 16.0075C26.5551 16.5594 26.5113 17.1157 26.4249 17.6612L31.8025 18.5111ZM5.44596 15.9989C5.44596 15.4469 5.48974 14.8896 5.57515 14.3451L0.196443 13.4974C0.0661904 14.3217 0.001066 15.1629 0 15.9979H5.44489L5.44596 15.9989ZM26.4269 14.3537L31.8057 13.5091C31.6765 12.6827 31.48 11.8617 31.2238 11.0674L26.0426 12.7415C26.2124 13.2657 26.3415 13.807 26.4269 14.3526V14.3537ZM5.96057 12.7351C6.13032 12.2109 6.34384 11.6963 6.5926 11.2062L1.7413 8.73351C1.36229 9.47764 1.0388 10.2591 0.780433 11.0557L5.95949 12.7351H5.96057ZM25.4117 11.2137L30.2651 8.74518C29.8861 8.00002 29.4441 7.27932 28.9519 6.60242L24.5479 9.80542C24.8715 10.2507 25.1619 10.7247 25.4117 11.2147V11.2137ZM7.45844 9.79686C7.78193 9.35275 8.14492 8.92776 8.53781 8.53597L8.54849 8.52525L4.69862 4.67529L4.68795 4.68597C4.09648 5.27745 3.54772 5.91912 3.05769 6.59068L7.45844 9.79686ZM23.4824 8.55517L24.6451 7.369L27.3217 4.69344L27.3131 4.68491C26.7248 4.09662 26.0875 3.55104 25.4191 3.06312L22.2098 7.46189C22.6518 7.78433 23.0736 8.14523 23.4632 8.53597L23.4824 8.55517ZM9.80833 7.45015C10.2535 7.12664 10.7275 6.83624 11.2176 6.58748L8.75029 1.73389C8.00506 2.1129 7.28442 2.55385 6.60755 3.04604L9.80833 7.45015ZM20.8016 6.59601L23.2796 1.74777C22.5355 1.36768 21.755 1.04311 20.9586 0.784732L19.275 5.96289C19.7991 6.13372 20.3127 6.34618 20.8027 6.59709L20.8016 6.59601ZM12.7464 5.95649C13.2706 5.7878 13.813 5.65861 14.3575 5.5732L13.5151 0.193243C12.6898 0.322436 11.8677 0.517818 11.0735 0.775123L12.7464 5.95649ZM17.6639 5.5764L18.5158 0.197515C17.6916 0.0672622 16.8504 0 16.0155 0L16.0102 5.44508C16.5621 5.44508 17.1183 5.48992 17.6639 5.5764Z" fill="white"/>
<path d="M15.9983 26.7957V21.3232C15.5385 21.3232 15.0796 21.2631 14.6358 21.146L13.215 26.433C14.1219 26.6733 15.058 26.7957 15.9983 26.7957ZM18.7817 26.433C19.6918 26.1915 20.5675 25.832 21.3815 25.3642L18.6263 20.6256C18.23 20.8531 17.8046 21.0281 17.362 21.145L18.7817 26.433ZM10.6141 25.3631L13.3704 20.6256C12.9753 20.3982 12.6093 20.1181 12.2811 19.793L12.2304 19.7436L10.491 21.5635L8.35654 23.6312L8.38785 23.6613C9.05511 24.3244 9.80439 24.8963 10.6152 25.3631H10.6141ZM23.6088 23.6634H23.6099C24.2761 22.9992 24.8515 22.2556 25.3201 21.4508L20.5545 18.7102C20.3256 19.103 20.0438 19.4667 19.7167 19.7919L23.6088 23.6634ZM6.67011 21.439L11.44 18.7049C11.2111 18.3111 11.0363 17.8883 10.9186 17.4473L5.59693 18.8541C5.83878 19.7586 6.20046 20.6288 6.67011 21.439ZM26.3976 18.868C26.6394 17.9666 26.7625 17.0363 26.7636 16.1017L21.2573 16.0996C21.2573 16.5578 21.1969 17.0138 21.0781 17.4548L26.3976 18.868ZM10.7415 16.0931C10.7415 15.635 10.802 15.1789 10.9218 14.7378L5.60342 13.3214C5.36049 14.2228 5.23633 15.1531 5.23633 16.0877L10.7426 16.0931H10.7415ZM21.0792 14.7443L26.3998 13.3354C26.1568 12.4308 25.7952 11.5606 25.3255 10.7515L20.5567 13.4878C20.7855 13.8815 20.9615 14.3044 21.0792 14.7443ZM11.4454 13.4814C11.6711 13.094 11.9496 12.7345 12.2714 12.4126L12.2854 12.3986L10.3161 10.4414L8.4224 8.50025L8.38785 8.53355C7.72278 9.19448 7.1484 9.93601 6.68091 10.7386L11.4454 13.4814ZM19.72 12.405L21.6697 10.4671L23.6596 8.58285L23.6099 8.53243C22.9448 7.87144 22.1967 7.29951 21.388 6.83381L18.6294 11.5703C19.0192 11.7945 19.382 12.0714 19.7059 12.3911L19.72 12.405ZM13.3737 11.567C13.7689 11.3395 14.1943 11.1657 14.638 11.0476L13.2214 5.75969C12.3102 6.00112 11.4357 6.35952 10.6206 6.82736L13.3737 11.567ZM17.3652 11.0498L18.7893 5.76291C17.8824 5.52147 16.9463 5.39914 16.0059 5.39807L16.0026 10.8706C16.4637 10.8706 16.9225 10.9307 17.3663 11.0487L17.3652 11.0498Z" fill="white"/>
</svg>
